<mxfile host="app.diagrams.net" modified="2020-11-07T06:59:59.159Z" agent="5.0 (Windows NT 10.0; Win64; x64) AppleWebKit/537.36 (KHTML, like Gecko) Chrome/86.0.4240.183 Safari/537.36" etag="VWr-FQM34B6t71r_ZLdL" version="13.9.2" type="github">
  <diagram id="C5RBs43oDa-KdzZeNtuy" name="Page-1">
    <mxGraphModel dx="1038" dy="548" grid="1" gridSize="10" guides="1" tooltips="1" connect="1" arrows="1" fold="1" page="1" pageScale="1" pageWidth="827" pageHeight="1169" math="0" shadow="0">
      <root>
        <mxCell id="WIyWlLk6GJQsqaUBKTNV-0" />
        <mxCell id="WIyWlLk6GJQsqaUBKTNV-1" parent="WIyWlLk6GJQsqaUBKTNV-0" />
        <mxCell id="mvPjsWcKP3Oavu_X8ScK-1" value="" style="rounded=0;whiteSpace=wrap;html=1;fillColor=#f5f5f5;strokeColor=#666666;fontColor=#333333;" vertex="1" parent="WIyWlLk6GJQsqaUBKTNV-1">
          <mxGeometry x="20" y="30" width="790" height="620" as="geometry" />
        </mxCell>
        <mxCell id="mvPjsWcKP3Oavu_X8ScK-2" value="&lt;font style=&quot;font-size: 16px&quot;&gt;&lt;b&gt;COVID TRACKER&lt;/b&gt;&lt;/font&gt;" style="text;html=1;strokeColor=none;fillColor=none;align=center;verticalAlign=middle;whiteSpace=wrap;rounded=0;" vertex="1" parent="WIyWlLk6GJQsqaUBKTNV-1">
          <mxGeometry x="70" y="75" width="150" height="20" as="geometry" />
        </mxCell>
        <mxCell id="mvPjsWcKP3Oavu_X8ScK-3" value="&lt;b&gt;Worldwide&lt;/b&gt;" style="rounded=1;whiteSpace=wrap;html=1;arcSize=11;" vertex="1" parent="WIyWlLk6GJQsqaUBKTNV-1">
          <mxGeometry x="300" y="70" width="190" height="30" as="geometry" />
        </mxCell>
        <mxCell id="mvPjsWcKP3Oavu_X8ScK-4" value="&lt;div&gt;&lt;br&gt;&lt;/div&gt;" style="rounded=1;whiteSpace=wrap;html=1;align=left;" vertex="1" parent="WIyWlLk6GJQsqaUBKTNV-1">
          <mxGeometry x="60" y="134" width="130" height="80" as="geometry" />
        </mxCell>
        <mxCell id="mvPjsWcKP3Oavu_X8ScK-5" value="" style="rounded=1;whiteSpace=wrap;html=1;" vertex="1" parent="WIyWlLk6GJQsqaUBKTNV-1">
          <mxGeometry x="210" y="134" width="130" height="80" as="geometry" />
        </mxCell>
        <mxCell id="mvPjsWcKP3Oavu_X8ScK-6" value="" style="rounded=1;whiteSpace=wrap;html=1;" vertex="1" parent="WIyWlLk6GJQsqaUBKTNV-1">
          <mxGeometry x="360" y="134" width="130" height="80" as="geometry" />
        </mxCell>
        <mxCell id="mvPjsWcKP3Oavu_X8ScK-9" value="" style="rounded=1;whiteSpace=wrap;html=1;arcSize=3;" vertex="1" parent="WIyWlLk6GJQsqaUBKTNV-1">
          <mxGeometry x="60" y="260" width="430" height="310" as="geometry" />
        </mxCell>
        <mxCell id="mvPjsWcKP3Oavu_X8ScK-10" value="&lt;b&gt;Corona virus cases&lt;/b&gt;" style="text;html=1;strokeColor=none;fillColor=none;align=left;verticalAlign=middle;whiteSpace=wrap;rounded=0;" vertex="1" parent="WIyWlLk6GJQsqaUBKTNV-1">
          <mxGeometry x="70" y="145" width="120" height="20" as="geometry" />
        </mxCell>
        <mxCell id="mvPjsWcKP3Oavu_X8ScK-12" value="###### Total" style="text;html=1;strokeColor=none;fillColor=none;align=left;verticalAlign=middle;whiteSpace=wrap;rounded=0;" vertex="1" parent="WIyWlLk6GJQsqaUBKTNV-1">
          <mxGeometry x="70" y="185" width="110" height="20" as="geometry" />
        </mxCell>
        <mxCell id="mvPjsWcKP3Oavu_X8ScK-13" value="+ ####" style="text;html=1;strokeColor=none;fillColor=none;align=left;verticalAlign=middle;whiteSpace=wrap;rounded=0;" vertex="1" parent="WIyWlLk6GJQsqaUBKTNV-1">
          <mxGeometry x="70" y="165" width="110" height="20" as="geometry" />
        </mxCell>
        <mxCell id="mvPjsWcKP3Oavu_X8ScK-14" value="&lt;b&gt;Recovers&lt;/b&gt;" style="text;html=1;strokeColor=none;fillColor=none;align=left;verticalAlign=middle;whiteSpace=wrap;rounded=0;" vertex="1" parent="WIyWlLk6GJQsqaUBKTNV-1">
          <mxGeometry x="220" y="145" width="110" height="20" as="geometry" />
        </mxCell>
        <mxCell id="mvPjsWcKP3Oavu_X8ScK-15" value="+ ####" style="text;html=1;strokeColor=none;fillColor=none;align=left;verticalAlign=middle;whiteSpace=wrap;rounded=0;" vertex="1" parent="WIyWlLk6GJQsqaUBKTNV-1">
          <mxGeometry x="220" y="165" width="110" height="20" as="geometry" />
        </mxCell>
        <mxCell id="mvPjsWcKP3Oavu_X8ScK-16" value="###### Total" style="text;html=1;strokeColor=none;fillColor=none;align=left;verticalAlign=middle;whiteSpace=wrap;rounded=0;" vertex="1" parent="WIyWlLk6GJQsqaUBKTNV-1">
          <mxGeometry x="220" y="185" width="110" height="20" as="geometry" />
        </mxCell>
        <mxCell id="mvPjsWcKP3Oavu_X8ScK-17" value="&lt;b&gt;Deaths&lt;/b&gt;" style="text;html=1;strokeColor=none;fillColor=none;align=left;verticalAlign=middle;whiteSpace=wrap;rounded=0;" vertex="1" parent="WIyWlLk6GJQsqaUBKTNV-1">
          <mxGeometry x="370" y="145" width="110" height="20" as="geometry" />
        </mxCell>
        <mxCell id="mvPjsWcKP3Oavu_X8ScK-18" value="+ ####" style="text;html=1;strokeColor=none;fillColor=none;align=left;verticalAlign=middle;whiteSpace=wrap;rounded=0;" vertex="1" parent="WIyWlLk6GJQsqaUBKTNV-1">
          <mxGeometry x="370" y="165" width="110" height="20" as="geometry" />
        </mxCell>
        <mxCell id="mvPjsWcKP3Oavu_X8ScK-19" value="###### Total" style="text;html=1;strokeColor=none;fillColor=none;align=left;verticalAlign=middle;whiteSpace=wrap;rounded=0;" vertex="1" parent="WIyWlLk6GJQsqaUBKTNV-1">
          <mxGeometry x="370" y="185" width="110" height="20" as="geometry" />
        </mxCell>
        <mxCell id="mvPjsWcKP3Oavu_X8ScK-20" value="" style="rounded=1;whiteSpace=wrap;html=1;arcSize=6;" vertex="1" parent="WIyWlLk6GJQsqaUBKTNV-1">
          <mxGeometry x="530" y="70" width="250" height="500" as="geometry" />
        </mxCell>
        <mxCell id="mvPjsWcKP3Oavu_X8ScK-21" value="&lt;font style=&quot;font-size: 16px&quot;&gt;&lt;b&gt;Cases by country&lt;/b&gt;&lt;/font&gt;" style="text;html=1;strokeColor=none;fillColor=none;align=center;verticalAlign=middle;whiteSpace=wrap;rounded=0;" vertex="1" parent="WIyWlLk6GJQsqaUBKTNV-1">
          <mxGeometry x="560" y="90" width="150" height="20" as="geometry" />
        </mxCell>
        <mxCell id="mvPjsWcKP3Oavu_X8ScK-24" value="" style="image;html=1;image=img/lib/clip_art/finance/Graph_128x128.png" vertex="1" parent="WIyWlLk6GJQsqaUBKTNV-1">
          <mxGeometry x="560" y="410" width="180" height="150" as="geometry" />
        </mxCell>
        <mxCell id="mvPjsWcKP3Oavu_X8ScK-25" value="" style="image;html=1;image=img/lib/clip_art/finance/Graph_128x128.png" vertex="1" parent="WIyWlLk6GJQsqaUBKTNV-1">
          <mxGeometry x="70" y="290" width="400" height="260" as="geometry" />
        </mxCell>
        <mxCell id="mvPjsWcKP3Oavu_X8ScK-27" value="" style="rounded=0;whiteSpace=wrap;html=1;" vertex="1" parent="WIyWlLk6GJQsqaUBKTNV-1">
          <mxGeometry x="550" y="134" width="210" height="256" as="geometry" />
        </mxCell>
        <mxCell id="mvPjsWcKP3Oavu_X8ScK-28" value="Value" style="text;html=1;strokeColor=none;fillColor=none;align=center;verticalAlign=middle;whiteSpace=wrap;rounded=0;" vertex="1" parent="WIyWlLk6GJQsqaUBKTNV-1">
          <mxGeometry x="632" y="160" width="40" height="20" as="geometry" />
        </mxCell>
        <mxCell id="mvPjsWcKP3Oavu_X8ScK-30" value="Value" style="text;html=1;strokeColor=none;fillColor=none;align=center;verticalAlign=middle;whiteSpace=wrap;rounded=0;" vertex="1" parent="WIyWlLk6GJQsqaUBKTNV-1">
          <mxGeometry x="570" y="160" width="40" height="20" as="geometry" />
        </mxCell>
        <mxCell id="mvPjsWcKP3Oavu_X8ScK-31" value="Value" style="text;html=1;strokeColor=none;fillColor=none;align=center;verticalAlign=middle;whiteSpace=wrap;rounded=0;" vertex="1" parent="WIyWlLk6GJQsqaUBKTNV-1">
          <mxGeometry x="690" y="160" width="40" height="20" as="geometry" />
        </mxCell>
        <mxCell id="mvPjsWcKP3Oavu_X8ScK-33" value="Value" style="text;html=1;strokeColor=none;fillColor=none;align=center;verticalAlign=middle;whiteSpace=wrap;rounded=0;" vertex="1" parent="WIyWlLk6GJQsqaUBKTNV-1">
          <mxGeometry x="692" y="220" width="40" height="20" as="geometry" />
        </mxCell>
        <mxCell id="mvPjsWcKP3Oavu_X8ScK-34" value="Value" style="text;html=1;strokeColor=none;fillColor=none;align=center;verticalAlign=middle;whiteSpace=wrap;rounded=0;" vertex="1" parent="WIyWlLk6GJQsqaUBKTNV-1">
          <mxGeometry x="634" y="220" width="40" height="20" as="geometry" />
        </mxCell>
        <mxCell id="mvPjsWcKP3Oavu_X8ScK-35" value="Value" style="text;html=1;strokeColor=none;fillColor=none;align=center;verticalAlign=middle;whiteSpace=wrap;rounded=0;" vertex="1" parent="WIyWlLk6GJQsqaUBKTNV-1">
          <mxGeometry x="572" y="220" width="40" height="20" as="geometry" />
        </mxCell>
        <mxCell id="mvPjsWcKP3Oavu_X8ScK-36" value="Value" style="text;html=1;strokeColor=none;fillColor=none;align=center;verticalAlign=middle;whiteSpace=wrap;rounded=0;" vertex="1" parent="WIyWlLk6GJQsqaUBKTNV-1">
          <mxGeometry x="692" y="280" width="40" height="20" as="geometry" />
        </mxCell>
        <mxCell id="mvPjsWcKP3Oavu_X8ScK-37" value="Value" style="text;html=1;strokeColor=none;fillColor=none;align=center;verticalAlign=middle;whiteSpace=wrap;rounded=0;" vertex="1" parent="WIyWlLk6GJQsqaUBKTNV-1">
          <mxGeometry x="634" y="280" width="40" height="20" as="geometry" />
        </mxCell>
        <mxCell id="mvPjsWcKP3Oavu_X8ScK-38" value="Value" style="text;html=1;strokeColor=none;fillColor=none;align=center;verticalAlign=middle;whiteSpace=wrap;rounded=0;" vertex="1" parent="WIyWlLk6GJQsqaUBKTNV-1">
          <mxGeometry x="572" y="280" width="40" height="20" as="geometry" />
        </mxCell>
        <mxCell id="mvPjsWcKP3Oavu_X8ScK-39" value="Value" style="text;html=1;strokeColor=none;fillColor=none;align=center;verticalAlign=middle;whiteSpace=wrap;rounded=0;" vertex="1" parent="WIyWlLk6GJQsqaUBKTNV-1">
          <mxGeometry x="695" y="340" width="40" height="20" as="geometry" />
        </mxCell>
        <mxCell id="mvPjsWcKP3Oavu_X8ScK-40" value="Value" style="text;html=1;strokeColor=none;fillColor=none;align=center;verticalAlign=middle;whiteSpace=wrap;rounded=0;" vertex="1" parent="WIyWlLk6GJQsqaUBKTNV-1">
          <mxGeometry x="637" y="340" width="40" height="20" as="geometry" />
        </mxCell>
        <mxCell id="mvPjsWcKP3Oavu_X8ScK-41" value="Value" style="text;html=1;strokeColor=none;fillColor=none;align=center;verticalAlign=middle;whiteSpace=wrap;rounded=0;" vertex="1" parent="WIyWlLk6GJQsqaUBKTNV-1">
          <mxGeometry x="575" y="340" width="40" height="20" as="geometry" />
        </mxCell>
      </root>
    </mxGraphModel>
  </diagram>
</mxfile>
